<svg width="8" height="11" viewBox="0 0 8 11" fill="none" xmlns="http://www.w3.org/2000/svg">
<path d="M2.39954 10.5688C3.37087 10.5688 4.15919 9.8121 4.15919 8.87978V7.1908H2.39954C1.42822 7.1908 0.639893 7.94746 0.639893 8.87978C0.639893 9.8121 1.42822 10.5688 2.39954 10.5688Z" fill="#0ACF83"/>
<path d="M0.639893 5.50185C0.639893 4.56953 1.42822 3.81287 2.39954 3.81287H4.15919V7.19084H2.39954C1.42822 7.19084 0.639893 6.43418 0.639893 5.50185Z" fill="#A259FF"/>
<path d="M0.642822 2.1238C0.642822 1.19148 1.43115 0.434814 2.40247 0.434814H4.16212V3.81279H2.40247C1.43115 3.81279 0.642822 3.05612 0.642822 2.1238Z" fill="#F24E1E"/>
<path d="M4.15894 0.434814H5.91858C6.88991 0.434814 7.67823 1.19148 7.67823 2.1238C7.67823 3.05612 6.88991 3.81279 5.91858 3.81279H4.15894V0.434814Z" fill="#FF7262"/>
<path d="M7.67823 5.50185C7.67823 6.43418 6.88991 7.19084 5.91858 7.19084C4.94726 7.19084 4.15894 6.43418 4.15894 5.50185C4.15894 4.56953 4.94726 3.81287 5.91858 3.81287C6.88991 3.81287 7.67823 4.56953 7.67823 5.50185Z" fill="#1ABCFE"/>
</svg>
