<svg width="30" height="28" viewBox="0 0 30 28" fill="none" xmlns="http://www.w3.org/2000/svg">
<path d="M9.43919 0C6.66202 0 4.97206 1.95313 0.852939 1.95313C0.382116 1.95313 0 2.39063 0 2.92969V23.4063C4.78897 23.6908 6.48063 21.4844 9.43919 21.4844C11.0251 21.4844 12.5479 22.6374 13.7039 23.8711V2.38542C12.495 1.10417 10.9898 0 9.43919 0ZM10.2921 16.6016H3.46862C2.99779 16.6016 2.61568 16.1641 2.61568 15.625C2.61568 15.0859 2.99779 14.6484 3.46862 14.6484H10.2921C10.7629 14.6484 11.1451 15.0859 11.1451 15.625C11.1451 16.1641 10.7629 16.6016 10.2921 16.6016ZM10.2921 12.6953H3.46862C2.99779 12.6953 2.61568 12.2578 2.61568 11.7188C2.61568 11.1797 2.99779 10.7422 3.46862 10.7422H10.2921C10.7629 10.7422 11.1451 11.1797 11.1451 11.7188C11.1451 12.2578 10.7629 12.6953 10.2921 12.6953ZM10.2921 8.78906H3.46862C2.99779 8.78906 2.61568 8.35156 2.61568 7.8125C2.61568 7.27344 2.99779 6.83594 3.46862 6.83594H10.2921C10.7629 6.83594 11.1451 7.27344 11.1451 7.8125C11.1451 8.35156 10.7629 8.78906 10.2921 8.78906ZM9.43919 23.4375C6.97476 23.4375 4.98059 25.6517 0 25.3704V26.3672C0 26.9063 0.382116 27.3438 0.852939 27.3438H13.7039V26.7044C12.9209 25.6035 11.0484 23.4375 9.43919 23.4375ZM19.6744 23.4375C18.059 23.4375 16.1899 25.6029 15.4098 26.7038V27.3438H28.2607C28.7315 27.3438 29.1136 26.9063 29.1136 26.3672V25.3672C24.1172 25.6475 22.1409 23.4375 19.6744 23.4375ZM28.2607 1.95313C24.141 1.95313 22.4528 0 19.6744 0C18.1244 0 16.6198 1.10286 15.4098 2.38542V23.8711C16.5661 22.6373 18.0887 21.4844 19.6744 21.4844C22.6415 21.4844 24.3571 23.7064 29.1136 23.4128V2.92969C29.1136 2.39063 28.7315 1.95313 28.2607 1.95313ZM25.645 16.6016H18.8215C18.3507 16.6016 17.9686 16.1641 17.9686 15.625C17.9686 15.0859 18.3507 14.6484 18.8215 14.6484H25.645C26.1158 14.6484 26.498 15.0859 26.498 15.625C26.498 16.1641 26.1158 16.6016 25.645 16.6016ZM25.645 12.6953H18.8215C18.3507 12.6953 17.9686 12.2578 17.9686 11.7188C17.9686 11.1797 18.3507 10.7422 18.8215 10.7422H25.645C26.1158 10.7422 26.498 11.1797 26.498 11.7188C26.498 12.2578 26.1158 12.6953 25.645 12.6953ZM25.645 8.78906H18.8215C18.3507 8.78906 17.9686 8.35156 17.9686 7.8125C17.9686 7.27344 18.3507 6.83594 18.8215 6.83594H25.645C26.1158 6.83594 26.498 7.27344 26.498 7.8125C26.498 8.35156 26.1158 8.78906 25.645 8.78906Z" fill="#E5E5E5"/>
</svg>
