<svg width="30" height="30" viewBox="0 0 30 30" fill="none" xmlns="http://www.w3.org/2000/svg">
<path d="M2.29242 29.1454L4.1831 27.2361L5.38921 28.4543C5.71106 28.7791 6.22793 28.7915 6.56466 28.4839L18.6277 17.4621L19.2603 18.1009C19.5931 18.4369 20.1335 18.4371 20.4664 18.1009L22.8787 15.6647C22.9406 15.6021 22.9911 15.5324 23.0299 15.4581C24.5039 15.3112 25.9073 14.7372 27.0663 13.8032L27.7035 14.4468C28.0365 14.783 28.5765 14.7832 28.9096 14.4468C29.2426 14.1103 29.2426 13.565 28.9096 13.2288L28.2731 12.5859C30.6775 9.55625 30.504 5.0944 27.7033 2.26637C24.9144 -0.549994 20.4958 -0.741326 17.4847 1.69148L16.8479 1.0484C16.5149 0.712165 15.9747 0.712165 15.6418 1.0484C15.3086 1.38485 15.3086 1.93014 15.6418 2.26637L16.2788 2.9099C15.3539 4.08032 14.7855 5.49769 14.6403 6.98618C14.5654 7.0261 14.4963 7.07724 14.4355 7.1387L12.0232 9.57465C11.6901 9.9111 11.6901 10.4564 12.0232 10.7926L12.6556 11.4314L1.74134 23.6132C1.43659 23.9537 1.44925 24.4756 1.77066 24.8002L2.97699 26.0182L1.08631 27.9274C0.753131 28.2639 0.753131 28.8092 1.08631 29.1454C1.41927 29.4819 1.95924 29.4819 2.29242 29.1454ZM26.4972 3.48456C28.6358 5.64417 28.7959 9.01815 27.0574 11.3583L18.7002 2.91887C21.0155 1.16481 24.3571 1.32317 26.4972 3.48456ZM25.8504 12.5754C24.8062 13.3622 23.5277 13.7866 22.2114 13.7727L16.309 7.81251C16.2953 6.48306 16.7155 5.19197 17.4949 4.13796L25.8504 12.5754ZM15.0387 8.96566L21.0695 15.0557L19.8634 16.2739L13.8324 10.1836L15.0387 8.96566ZM8.55463 24.3426L5.84233 21.6036L13.8633 12.651L17.4201 16.2425L8.55463 24.3426ZM4.69642 22.8824L7.28833 25.4998L6.0218 26.6568L3.55072 24.1614L4.69642 22.8824Z" fill="#E5E5E5"/>
</svg>
